<?xml version="1.0" encoding="UTF-8"?><svg id="Layer_2" xmlns="http://www.w3.org/2000/svg" viewBox="0 0 173.32 172.06"><defs><style>.cls-1{fill:#fff;}</style></defs><path class="cls-1" d="M90.17,81.96s3.45,26.55,26.34,26.54l-15.8-26.54c-3.96,0-6.58,0-10.54,0Z"/><path class="cls-1" d="M86.66,49.92c-2.13,7.62-4.72,15.02-7.77,22.33h15.53c-3.04-7.31-5.63-14.71-7.77-22.33Z"/><path class="cls-1" d="M86.66,6.47C42.43,6.47,6.57,42.33,6.57,86.56s35.86,80.09,80.09,80.09,80.09-35.86,80.09-80.09S130.89,6.47,86.66,6.47Zm41.53,110.25h-6.81c-3.09-.02-28.6-.34-34.7-32.41l-5.99,19.6h-5.08c.09-.2,0,0,8.17-21.96-3.28,0-7.89,0-11.17,0-4.65,9.21-9.89,18.02-15.61,26.56h22.27c-.86,2.74-1.6,5.47-2.45,8.21H21.74c28.26-24.29,54.62-53.23,64.92-89.87,6.86,24.4,31.97,61.5,64.92,89.87h-23.39Z"/></svg>